<?xml version="1.0" encoding="utf-8"?>
<!-- Generator: Adobe Illustrator 19.1.0, SVG Export Plug-In . SVG Version: 6.00 Build 0)  -->
<svg version="1.1" id="Layer_1" xmlns="http://www.w3.org/2000/svg" xmlns:xlink="http://www.w3.org/1999/xlink" x="0px" y="0px"
	 viewBox="0 0 2272 1872" enable-background="new 0 0 2272 1872" xml:space="preserve">
<rect fill="#008BCC" width="2272" height="1872"/>
<g>
	<path fill="#FFFDFD" d="M2200.8,532.1c-66.4,0-128,20.8-178.6,56.1c-48.6-109.3-158.1-185.4-285.4-185.4
		c-150.4,0-275.9,106.3-305.6,247.9c-24.7-7.9-51.1-12.1-78.4-12.1c-16.5,0-32.6,1.6-48.2,4.5C1266,548.6,1173.2,482,1064.8,482
		c-116.7,0-215.4,77.2-247.7,183.3c-27.5-16.9-59.9-26.7-94.6-26.7c-48.2,0-91.9,18.9-124.3,49.6c-21.7-13.7-45.4-24.4-70.7-31.4
		C490.9,503.8,353.2,390,189,390c-69.7,0-134.6,20.5-189,55.8v584.5V1322v116h2272v-92v-197.7V540.3
		C2249.1,534.9,2225.3,532.1,2200.8,532.1z"/>
	<path fill="#E6E7E8" d="M2089.5,670c-109.2,0-204.5,59.9-254.7,148.6c-27-8.2-55.6-12.6-85.3-12.6c-62.5,0-120.5,19.6-168,53
		c-34.6-109.6-137-189-258-189c-122.2,0-225.5,81.1-259,192.4c-30.9-18.7-67.2-29.4-106-29.4c-24.8,0-48.6,4.4-70.6,12.5
		c-19-93.8-102-164.5-201.4-164.5C573,681,481,773,481,886.5c0,0.6,0,1.2,0,1.8c-15.7,1.6-30.6,5.6-44.5,11.6
		c-17.8-63.9-76.4-110.9-146-110.9c-43.7,0-83,18.5-110.7,48.1c-13.2-2.7-26.8-4.1-40.8-4.1c-53.6,0-102.4,20.5-139,54V1191v339.7
		v70.3h2272v-36v-373.9V733.9C2222,693.9,2158.5,670,2089.5,670z"/>
	<path fill="#FFFDFD" d="M2195.1,1135.2c-36-127.6-153.3-221.2-292.5-221.2c-146,0-267.9,103-297.2,240.2c-2.2-0.1-4.5-0.1-6.7-0.1
		c-32,0-62.5,6-90.6,17c-21.9-115.6-123.4-203-245.4-203c-117.6,0-216.2,81.3-242.7,190.7c-40.1,15.3-74.1,42.9-97.5,78.2h-36.1
		c-2.4-2.2-4.8-4.3-7.2-6.4c6.3-21.5,9.7-44.2,9.7-67.8c0-133.1-107.9-241-241-241c-74.4,0-141,33.8-185.2,86.8
		c-29.7-20-65.4-31.6-103.8-31.6c-69,0-129.3,37.6-161.4,93.4c-18.4-6.1-38.1-9.4-58.6-9.4c-55.3,0-104.9,24.1-139,62.4v247.2V1553
		v260h2265v-105.5c2.4-1.1,4.7-2.3,7-3.5v-542.2C2248,1149.7,2222.2,1140.6,2195.1,1135.2z"/>
	<path fill="#E6E7E8" d="M2134.4,1243c-115.1,0-211.1,81.4-233.8,189.7c-20.6-26-52.5-42.7-88.3-42.7c-25,0-48,8.1-66.7,21.9
		c-12.4-48.8-56.6-85-109.3-85c-35.7,0-67.5,16.6-88.2,42.5c-32.1-38.3-80.3-62.7-134.2-62.7c-27.5,0-53.6,6.4-76.8,17.7
		c-37.2-90.7-126.3-154.6-230.4-154.6c-130.1,0-236.9,99.9-247.9,227.1c-0.3,0-0.6,0-1,0c-14.2,0-28.1,1.2-41.6,3.5
		c-34.5-56.2-96.5-93.7-167.2-93.7c-81.3,0-151,49.5-180.7,119.9c-17.5-5.2-36.1-7.9-55.3-7.9c-2,0-4,0-6.1,0.1
		C365.5,1334.8,279,1277,179,1277c-69.8,0-133.1,28.2-179,73.8v360.4v37.8v121.7h2272V1813v-135.8v-390.6
		C2233.1,1259.1,2185.7,1243,2134.4,1243z"/>
	<path fill="#FFFDFD" d="M2272,1564.1c-103.9,7.4-190.9,76.2-224.7,170.4c-29.3-22.9-66.2-36.6-106.4-36.6c-21.8,0-42.6,4-61.8,11.4
		c-38.1-96-131.8-163.9-241.4-163.9c-67.7,0-129.4,25.9-175.6,68.4c-32.7-77-109.1-131-198.1-131c-104.8,0-192.1,75-211.2,174.2
		c-1.3,0-2.6,0-3.9,0c-37.2,0-72.2,9.4-102.7,26.1c-16.7-102.2-105.4-180.2-212.3-180.2c-60.4,0-114.9,24.9-154,64.9
		c-11.1-108.4-102.7-192.9-214-192.9c-118.8,0-215.1,96.3-215.1,215.1c0,6.5,0.3,13,0.9,19.4c-9.7-1.7-19.6-2.5-29.8-2.5
		c-47.4,0-90.3,18.8-121.9,49.4v214.6h2272V1564.1z"/>
	<path fill="#FFFDFD" d="M1579.9,875c73,0,135.2,46.2,159,110.9c-8-80.8-76.1-143.8-159-143.8c-82.9,0-151,63.1-159,143.8
		C1444.6,921.2,1506.9,875,1579.9,875z"/>
	<path fill="#FFFDFD" d="M875.7,1399c73,0,135.2,46.2,159,110.9c-8-80.8-76.1-143.8-159-143.8s-151,63.1-159,143.8
		C740.5,1445.2,802.7,1399,875.7,1399z"/>
	<path fill="#FFFDFD" d="M511.6,897c73,0,135.2,46.2,159,110.9c-8-80.8-76.1-143.8-159-143.8s-151,63.1-159,143.8
		C376.4,943.2,438.6,897,511.6,897z"/>
	<path fill="#E6E7E8" d="M1603.7,1168.4c73,0,135.2,46.2,159,110.9c-8-80.8-76.1-143.8-159-143.8s-151,63.1-159,143.8
		C1468.5,1214.6,1530.7,1168.4,1603.7,1168.4z"/>
	<path fill="#E6E7E8" d="M415.4,731.1c73,0,135.2,46.2,159,110.9c-8-80.8-76.1-143.8-159-143.8s-151,63.1-159,143.8
		C280.1,777.3,342.4,731.1,415.4,731.1z"/>
	<path fill="#E6E7E8" d="M2025.5,611.4c73,0,135.2,46.2,159,110.9c-8-80.8-76.1-143.8-159-143.8c-82.9,0-151,63.1-159,143.8
		C1890.3,657.6,1952.5,611.4,2025.5,611.4z"/>
	<path fill="#E6E7E8" d="M415.4,1407.6c73,0,135.2,46.2,159,110.9c-8-80.8-76.1-143.8-159-143.8s-151,63.1-159,143.8
		C280.1,1453.8,342.4,1407.6,415.4,1407.6z"/>
	<path fill="#E6E7E8" d="M1034.8,1667.9c73,0,135.2,46.2,159,110.9c-8-80.8-76.1-143.8-159-143.8c-82.9,0-151,63.1-159,143.8
		C899.5,1714.1,961.8,1667.9,1034.8,1667.9z"/>
	<path fill="#FFFDFD" d="M1948.3,1429.3c73,0,135.2,46.2,159,110.9c-8-80.8-76.1-143.8-159-143.8c-82.9,0-151,63.1-159,143.8
		C1813.1,1475.5,1875.3,1429.3,1948.3,1429.3z"/>
	<path fill="#FFFDFD" d="M1136,844.3c73,0,135.2,46.2,159,110.9c-8-80.8-76.1-143.8-159-143.8s-151,63.1-159,143.8
		C1000.8,890.5,1063,844.3,1136,844.3z"/>
</g>
</svg>
